<svg width="34" height="35" viewBox="0 0 34 35" fill="none" xmlns="http://www.w3.org/2000/svg">
<path d="M24.6652 7.34375C24.9688 8.02083 25.0446 8.41146 24.8929 8.51562C24.7917 8.61979 24.6272 8.64583 24.3996 8.59375C24.1719 8.54167 24.0074 8.38542 23.9062 8.125C23.8557 7.96875 23.8304 7.8125 23.8304 7.65625L23.7545 7.42188H23.5268C23.2232 7.52604 23.0714 7.42188 23.0714 7.10938C23.122 7.00521 23.2485 6.90104 23.4509 6.79688C23.4509 6.74479 23.4256 6.69271 23.375 6.64062C23.3244 6.32812 23.4003 6.19792 23.6027 6.25C24.0074 6.35417 24.3616 6.71875 24.6652 7.34375ZM4.97098 5.11719C4.97098 5.11719 5.79948 4.26432 7.45647 2.55859C9.11347 0.852863 12.2946 0 17 0C21.7054 0 25.715 1.70573 29.029 5.11719C32.343 8.52865 34 12.6562 34 17.5C34 22.3438 32.343 26.4714 29.029 29.8828C25.715 33.2943 21.7054 35 17 35C12.2946 35 8.28497 33.2943 4.97098 29.8828C1.65699 26.4714 0 22.3438 0 17.5C0 12.6562 1.65699 8.52865 4.97098 5.11719ZM10.7009 31.0156L11.308 31.3281C11.6116 31.4323 11.8646 31.5104 12.067 31.5625C13.0283 31.9271 14.1161 32.1875 15.3304 32.3438C17.6071 32.6042 19.7068 32.3958 21.6295 31.7188C22.9955 31.25 24.0833 30.7292 24.8929 30.1562C25.0446 30.0521 25.1964 29.7396 25.3482 29.2188C25.5 28.6979 25.6012 28.3854 25.6518 28.2812C25.8036 27.9688 25.8921 27.3828 25.9174 26.5234C25.9427 25.6641 26.1577 25.026 26.5625 24.6094C26.8155 24.2969 26.9673 24.0104 27.0179 23.75C27.0685 23.4896 27.0558 23.1901 26.9799 22.8516C26.904 22.513 26.8661 22.2135 26.8661 21.9531C26.8661 21.7969 26.942 21.4583 27.0938 20.9375C27.2455 20.4167 27.2708 20 27.1696 19.6875C27.1696 19.5833 27.0685 19.5703 26.8661 19.6484C26.6637 19.7266 26.5372 19.7135 26.4866 19.6094C26.3854 19.4531 26.1957 19.362 25.9174 19.3359C25.6391 19.3099 25.3356 19.3229 25.0067 19.375C24.6778 19.4271 24.4628 19.4531 24.3616 19.4531C23.7545 19.349 22.9196 18.75 21.8571 17.6562C21.7054 17.5 21.7307 16.8229 21.933 15.625C21.9836 15.4688 22.0342 15.1042 22.0848 14.5312C22.1354 13.9583 22.2493 13.5286 22.4263 13.2422C22.6034 12.9557 22.9196 12.7604 23.375 12.6562C23.5268 12.6042 23.6659 12.4609 23.7924 12.2266C23.9189 11.9922 24.0327 11.849 24.1339 11.7969C24.2857 11.7448 24.4754 11.6927 24.7031 11.6406C24.9308 11.5885 25.1205 11.5365 25.2723 11.4844C25.5253 11.4323 25.8668 11.4453 26.2969 11.5234C26.7269 11.6016 27.0432 11.6406 27.2455 11.6406C27.5997 11.6406 28.1562 11.9271 28.9152 12.5C29.067 12.6562 29.2314 12.7474 29.4085 12.7734C29.5856 12.7995 29.7879 12.8125 30.0156 12.8125C30.2433 12.8125 30.433 12.8385 30.5848 12.8906C30.7872 12.8385 30.7366 12.6302 30.433 12.2656C30.2812 12.1615 30.0789 12.1094 29.8259 12.1094C29.3705 12.0052 28.8646 11.6276 28.308 10.9766C27.7515 10.3255 27.3467 9.92188 27.0938 9.76562C26.7396 9.55729 26.4613 9.55729 26.2589 9.76562L26.3348 10.7031C26.3348 10.7552 26.006 10.8854 25.3482 11.0938C24.8929 11.1979 24.4628 10.9375 24.058 10.3125C23.8051 9.84375 23.8557 9.53125 24.2098 9.375H24.4375C24.5387 9.32292 24.6399 9.28385 24.7411 9.25781C24.8423 9.23177 24.9688 9.19271 25.1205 9.14062C25.2723 9.08854 25.3988 9.03646 25.5 8.98438C25.6012 8.93229 25.7024 8.86719 25.8036 8.78906C25.9048 8.71094 25.9807 8.61979 26.0312 8.51562C26.0818 8.41146 26.0818 8.30729 26.0312 8.20312C25.9807 8.09896 25.9554 7.91667 25.9554 7.65625C25.9048 7.34375 25.8036 7.16146 25.6518 7.10938C25.4494 7.05729 25.2597 6.95312 25.0826 6.79688C24.9055 6.64062 24.7158 6.53646 24.5134 6.48438C24.2604 6.43229 24.1339 6.06771 24.1339 5.39062C24.1339 5.02604 24.2604 4.84375 24.5134 4.84375C24.6146 4.84375 24.7158 4.84375 24.817 4.84375C23.5521 4.01042 22.1101 3.38542 20.4911 2.96875C20.2887 3.59375 20.0863 3.90625 19.8839 3.90625C19.5298 4.01042 19.3021 4.08854 19.2009 4.14062C19.0997 4.24479 18.9732 4.41406 18.8214 4.64844C18.6696 4.88281 18.5432 5.05208 18.442 5.15625C18.3408 5.26042 18.2269 5.35156 18.1004 5.42969C17.974 5.50781 17.8475 5.48177 17.721 5.35156C17.5945 5.22135 17.4554 5 17.3036 4.6875C17.2024 4.375 17.215 3.98438 17.3415 3.51562C17.468 3.04688 17.506 2.70833 17.4554 2.5H17H16.7723C17.1265 3.22917 16.9241 3.72396 16.1652 3.98438C15.9628 3.98438 15.7478 3.91927 15.5201 3.78906C15.2924 3.65885 15.0774 3.61979 14.875 3.67188C14.7738 3.67188 14.6347 3.63281 14.4576 3.55469C14.2805 3.47656 14.1414 3.46354 14.0402 3.51562C13.3824 3.82812 13.0283 4.14062 12.9777 4.45312C12.8765 4.92188 12.9524 5.19531 13.2054 5.27344C13.4583 5.35156 13.7366 5.23438 14.0402 4.92188C14.7485 4.19271 15.381 4.03646 15.9375 4.45312C16.1905 4.66146 16.317 5.02604 16.317 5.54688C16.317 5.75521 16.3043 5.9375 16.279 6.09375C16.2537 6.25 16.1905 6.41927 16.0893 6.60156C15.9881 6.78385 15.8363 6.84896 15.6339 6.79688C15.5833 6.79688 15.4948 6.75781 15.3683 6.67969C15.2418 6.60156 15.1533 6.54948 15.1027 6.52344C15.0521 6.4974 14.9509 6.51042 14.7991 6.5625C14.6979 6.66667 13.9643 6.90104 12.5982 7.26562C12.2946 7.31771 11.9278 7.4349 11.4978 7.61719C11.0677 7.79948 10.8021 7.91667 10.7009 7.96875C10.1443 8.17708 9.84077 8.48958 9.79018 8.90625C9.79018 9.63542 9.71429 10.026 9.5625 10.0781C9.46131 10.1302 9.34747 10.013 9.22098 9.72656C9.09449 9.4401 8.91741 9.15365 8.68973 8.86719C8.46205 8.58073 8.19643 8.46354 7.89286 8.51562C7.3869 8.56771 6.90625 8.8151 6.45089 9.25781C5.99554 9.70052 5.84375 10.1823 5.99554 10.7031C6.04613 10.8073 6.23586 10.8984 6.56473 10.9766C6.8936 11.0547 7.09598 11.1328 7.17188 11.2109C7.24777 11.2891 7.10863 11.4844 6.75446 11.7969C6.70387 11.901 6.69122 12.0312 6.71652 12.1875C6.74182 12.3438 6.77976 12.5651 6.83036 12.8516C6.88095 13.138 6.90625 13.3073 6.90625 13.3594C6.95685 13.724 7.15923 14.0104 7.51339 14.2188C7.86756 14.4271 8.19643 14.401 8.5 14.1406C8.75298 13.8802 9.10714 13.8281 9.5625 13.9844C11.5357 15.0781 12.6741 15.7812 12.9777 16.0938C13.0789 16.1979 13.2686 16.5625 13.5469 17.1875C13.8251 17.8125 14.0655 18.1771 14.2679 18.2812C14.3185 18.3333 14.6094 18.4635 15.1406 18.6719C15.6719 18.8802 16.0387 19.1146 16.2411 19.375C16.4435 19.6875 16.4561 20.013 16.279 20.3516C16.1019 20.6901 15.8869 20.9635 15.6339 21.1719C15.5327 21.224 15.3304 21.5885 15.0268 22.2656C14.7232 22.9427 14.5208 23.3333 14.4196 23.4375C14.3185 23.5938 13.9137 23.776 13.2054 23.9844C13.1548 23.9844 13.0789 24.0495 12.9777 24.1797C12.8765 24.3099 12.7879 24.4401 12.7121 24.5703C12.6362 24.7005 12.5729 24.7917 12.5223 24.8438C12.4211 24.9479 12.244 25.1823 11.9911 25.5469C11.7381 25.9115 11.4851 26.1719 11.2321 26.3281C10.0685 27.1615 9.6131 28.3073 9.86607 29.7656C10.0179 30.3906 10.2961 30.8073 10.7009 31.0156ZM7.58929 28.9062L7.74107 29.0625C8.09524 29.375 8.67708 29.7917 9.48661 30.3125C8.22173 29.0104 7.69048 26.9792 7.89286 24.2188L8.12054 22.3438C8.17113 22.2396 8.13318 22.0964 8.0067 21.9141C7.88021 21.7318 7.81696 21.5885 7.81696 21.4844C7.81696 21.1198 7.71577 20.8854 7.51339 20.7812C7.4122 20.6771 7.31101 20.5729 7.20982 20.4688C6.75446 20 6.45089 19.5573 6.29911 19.1406C5.89435 18.2552 6.14732 17.1354 7.05804 15.7812C7.31101 15.3646 7.26042 14.8698 6.90625 14.2969C6.55208 13.724 6.3497 13.3854 6.29911 13.2812C6.29911 13.125 6.21057 12.9688 6.03348 12.8125C5.8564 12.6562 5.79315 12.5 5.84375 12.3438C5.89435 12.0833 5.79315 11.9271 5.54018 11.875C5.38839 11.7708 5.2619 11.6927 5.16071 11.6406C4.80655 11.4323 4.65476 11.0807 4.70536 10.5859C4.75595 10.0911 4.73065 9.76562 4.62946 9.60938C3.01042 12.3698 2.31473 15.3646 2.54241 18.5938C2.77009 21.8229 3.87054 24.6615 5.84375 27.1094L5.91964 27.1875V27.2656H5.99554C6.29911 27.6823 6.52679 27.9688 6.67857 28.125C6.77976 28.2292 6.9189 28.3594 7.09598 28.5156C7.27307 28.6719 7.3869 28.776 7.4375 28.8281L7.58929 28.9062Z" fill="#969696"/>
</svg>
