<svg width="21" height="21" viewBox="0 0 21 21" fill="none" xmlns="http://www.w3.org/2000/svg">
<path d="M13.1005 0.809998L10.2705 3.64C9.5005 4.42 9.5005 5.69 10.2705 6.47L11.6805 7.88L7.1305 12.43L4.3105 9.6L2.8905 11C-2.0595 16 1.5005 19.5 1.5005 19.5C1.5005 19.5 5.0005 23 10.0005 18.09L11.4105 16.68L8.6105 13.88L13.1505 9.34L14.5405 10.73C15.3205 11.5 16.5905 11.5 17.3705 10.73L20.2005 7.9L13.1005 0.809998ZM15.9305 9.28L14.5505 7.9L13.1105 6.46L11.7105 5.06L13.1205 3.65L17.3505 7.88L15.9305 9.28Z" fill="black"/>
</svg>
