<svg width="57" height="86" viewBox="0 0 57 86" fill="none" xmlns="http://www.w3.org/2000/svg">
<g clip-path="url(#clip0_31_1513)">
<path d="M19.8824 70.114C19.3944 70.114 18.9413 70.4292 18.767 70.8845L16.4663 76.6982L16.2572 77.3636L16.0829 76.6982L14.3051 71.0596C14.3051 71.0246 14.3051 71.0246 14.2703 71.0246C14.096 70.5343 13.6428 70.2191 13.12 70.2191H10.2616C9.5993 70.2541 9.11128 70.7794 9.11128 71.4448C9.14614 71.655 9.181 71.8651 9.25072 72.0752L9.63416 73.266L8.23983 76.8032L8.03068 77.4686L7.85639 76.8032L6.07863 71.1296L6.04377 71.0946C5.86948 70.6043 5.41632 70.2541 4.89345 70.2541H2.03508C1.40764 70.2891 0.884766 70.8145 0.884766 71.4799C0.884766 71.69 0.954482 71.9001 1.0242 72.1103L5.31175 84.9633C5.45118 85.4887 5.93919 85.8739 6.46207 85.8739C6.98494 85.8739 7.47295 85.5237 7.61238 85.0334L10.6102 77.4336L10.8193 76.7682L10.9936 77.4336L13.5383 84.9984C13.6777 85.5237 14.1657 85.9089 14.6886 85.9089C15.2115 85.9089 15.6995 85.5587 15.8389 85.0334L20.963 71.8651C21.0328 71.69 21.0676 71.5149 21.0676 71.3398C21.1025 70.6744 20.5447 70.114 19.8824 70.114Z" fill="black"/>
<path d="M41.2506 70.114C40.7626 70.114 40.3094 70.4292 40.1003 70.8845L37.8345 76.6982L37.6254 77.3636L37.4511 76.6982L35.6733 71.0246V70.9896C35.499 70.4993 35.0459 70.1841 34.523 70.1841H31.6646C31.0372 70.2191 30.5143 70.7444 30.5143 71.4098C30.5143 71.62 30.584 71.8301 30.6537 72.0402L31.0372 73.231L29.6429 76.7682L29.3988 77.4336L29.2246 76.7682L27.4468 71.0946L27.4119 71.0596C27.2376 70.5693 26.7845 70.2541 26.2965 70.2541H23.4032C22.7409 70.2891 22.2529 70.8145 22.2529 71.4799C22.2878 71.69 22.3226 71.9001 22.3924 72.1103L26.6799 84.9633C26.8193 85.4887 27.3074 85.8739 27.8302 85.8739C28.3531 85.8739 28.8063 85.5237 28.9805 85.0334L31.9783 77.4336L32.1875 76.7682L32.3618 77.4336L34.8716 84.9984C35.0459 85.6638 35.7082 86.049 36.3356 85.8739C36.7539 85.7688 37.0676 85.4536 37.2071 85.0334L42.2964 72.0052C42.3661 71.8301 42.4009 71.655 42.4009 71.4799C42.4706 70.6744 41.9129 70.114 41.2506 70.114Z" fill="black"/>
<path d="M55.1242 70.149H45.12C44.5274 70.149 44.0742 70.6043 44.0742 71.1997V84.5781C44.1091 85.1735 44.5971 85.6638 45.1897 85.6638H48.048C48.6755 85.6638 49.1635 85.1385 49.1635 84.5431V78.3092H53.2419C53.8345 78.2741 54.2876 77.7488 54.2528 77.1184C54.2179 76.5581 53.7648 76.1028 53.207 76.1028H49.1635V72.5305H55.2288C55.8911 72.5305 56.3791 71.9702 56.3791 71.3398C56.3094 70.6744 55.7865 70.149 55.1242 70.149Z" fill="black"/>
<path d="M39.5776 27.5624C41.3902 29.6286 41.5994 35.7225 46.1658 33.2709C48.9196 31.8 48.8847 25.6361 45.2246 23.4298C42.2617 21.6787 40.6233 24.0602 39.5427 26.967C39.473 27.1421 39.473 27.3872 39.5776 27.5624Z" fill="black"/>
<path d="M32.4665 26.5817C30.5493 28.1927 29.2246 32.5354 25.704 31.0645C22.8456 29.5936 22.6016 23.955 27.4817 21.3284C30.8978 19.7524 32.6407 22.8694 32.6407 26.1964C32.6407 26.3365 32.571 26.4766 32.4665 26.5817Z" fill="black"/>
<path d="M37.2069 37.7187C39.0893 37.5085 38.671 35.7574 37.2418 35.3022C35.7429 34.8819 34.2091 34.7068 32.6405 34.7068C30.2005 34.7768 30.2702 36.633 31.5251 36.9482C32.4662 37.2634 33.0937 37.4035 33.9303 38.4541C34.6971 39.9251 34.3486 38.0339 37.2069 37.7187Z" fill="black"/>
<path d="M46.1308 6.19893C48.5011 2.24145 52.6492 3.01193 54.7059 4.97316C56.9716 7.1095 57.3551 9.59607 56.4836 11.3472C55.2984 13.6936 52.2658 16.5304 50.2789 13.7987C49.4074 12.5729 47.5599 11.137 46.549 10.7168C44.9456 10.0514 44.6667 8.65047 46.1308 6.19893Z" fill="black"/>
<path d="M55.5776 23.7099C55.3684 23.0095 55.0198 23.0445 55.0198 23.6399C55.229 30.8894 50.9066 38.6293 41.704 38.6993C39.3337 38.6993 40.0657 42.4817 35.7433 40.5905C32.6409 38.4892 30.8631 42.6218 28.6671 38.174C28.1791 36.8782 27.4471 36.3879 26.5059 36.1427C17.4428 33.8663 14.5495 21.2934 22.5669 11.137C24.1355 12.0826 24.7281 12.2227 26.4362 10.6817C27.3773 9.8412 28.4579 9.17578 29.6083 8.65045C31.5254 7.91499 32.5712 7.07446 30.898 3.39715C28.7368 -1.40086 24.3795 -0.0700232 22.3578 1.61103C20.092 3.50222 18.5234 6.51411 21.4166 10.0513C13.2598 15.5848 11.8655 22.3441 12.0746 28.2628C12.2489 34.5317 10.6803 34.0064 12.6672 40.3804C12.8415 40.9407 12.4581 40.9407 12.1443 40.7306C3.63895 35.2672 -0.962323 18.6317 12.2838 9.42094C12.5626 9.14076 12.4581 8.79054 11.3775 9.45596C-0.0908707 15.5498 -1.13661 27.3172 0.780583 35.2672C1.72175 39.1196 0.292569 39.82 1.79147 44.8632C5.20756 55.4048 8.10079 56.2453 12.2489 56.5255C19.7434 56.5255 14.6541 52.3929 14.933 47.1746C14.933 46.8594 15.3164 46.7194 15.5256 47.3498C19.6388 56.6306 22.5321 65.0709 33.3729 64.2654C39.6474 63.4599 36.1616 60.3079 35.7781 58.5568C31.1769 43.2172 42.3315 39.5749 39.1942 54.5643C37.1027 63.1447 43.6909 62.2691 48.3619 59.1872C53.0678 56.0702 59.0634 35.1971 55.5776 23.7099ZM37.3816 41.8513C36.3359 44.618 30.9677 43.6724 30.7934 41.0108C30.7934 40.9057 30.9329 40.9407 31.0026 40.9407C33.0243 41.431 35.1158 41.7112 37.2073 41.7462C37.277 41.7813 37.4165 41.7462 37.3816 41.8513Z" fill="black"/>
<path d="M13.3648 60.483C13.3648 61.6037 12.4933 62.4792 11.3779 62.5143C10.2624 62.5493 9.39095 61.6387 9.3561 60.518C9.3561 59.3973 10.2275 58.5218 11.343 58.4867C12.4585 58.4867 13.3648 59.3623 13.3648 60.483ZM11.3779 58.0665C10.0533 58.0665 8.97266 59.1521 8.97266 60.483C8.97266 61.8138 10.0533 62.8995 11.3779 62.8995C12.7025 62.8995 13.7831 61.8138 13.7831 60.483C13.7482 59.1521 12.6676 58.0665 11.3779 58.0665Z" fill="black"/>
<path d="M12.0394 60.8682C12.0046 61.1834 11.7257 61.3936 11.412 61.3585C10.9588 61.3235 10.6451 60.9383 10.6451 60.518C10.6451 60.518 10.6451 60.518 10.6451 60.483C10.5754 60.0627 10.8542 59.6775 11.2725 59.6074C11.3074 59.6074 11.3422 59.6074 11.3771 59.6074C11.6908 59.6074 11.9348 59.7825 12.0046 60.0977H12.3531C12.3183 59.6074 11.8651 59.2222 11.3771 59.2572C10.7845 59.2222 10.2616 59.7125 10.2616 60.3429C10.2616 60.3779 10.2616 60.448 10.2616 60.483C10.2268 61.1134 10.6799 61.6387 11.3074 61.7088C11.3422 61.7088 11.3771 61.7088 11.412 61.7088C11.9 61.7088 12.3183 61.3585 12.388 60.8682H12.0394Z" fill="black"/>
<path d="M55.5422 66.2266C55.5422 67.3473 54.6708 68.2578 53.5553 68.2578C52.4398 68.2578 51.5335 67.3823 51.5335 66.2616C51.5335 65.1409 52.405 64.2303 53.5204 64.2303C54.6359 64.2303 55.5074 65.1059 55.5422 66.2266ZM53.5204 63.8101C52.1958 63.8101 51.1152 64.8957 51.1152 66.2266C51.1152 67.5574 52.1958 68.6431 53.5204 68.6431C54.845 68.6431 55.9257 67.5574 55.9257 66.2266C55.9257 64.8957 54.845 63.8101 53.5204 63.8101Z" fill="black"/>
<path d="M53.1022 66.4017H53.4856L54.0782 67.3823H54.4617L53.7994 66.3667C54.1131 66.3667 54.3919 66.1215 54.3919 65.7713V65.7363C54.3919 65.281 54.1131 65.0709 53.5902 65.0709H52.7188V67.3473H53.0673L53.1022 66.4017ZM53.1022 66.0865V65.3861H53.5553C53.7994 65.3861 54.0434 65.4561 54.0434 65.7363C54.0434 66.0865 53.7993 66.1215 53.4856 66.1215L53.1022 66.0865Z" fill="black"/>
</g>
<defs>
<clipPath id="clip0_31_1513">
<rect width="57" height="86" fill="white"/>
</clipPath>
</defs>
</svg>
